<svg xmlns="http://www.w3.org/2000/svg" viewBox="0 0 64 64" class="digivice-storage">

  <rect x="16" y="12" width="32" height="40" rx="8" fill="#E5E7EB" stroke="#000" stroke-width="2"/>
  <rect x="18" y="14" width="28" height="36" rx="6" fill="#F3F4F6"/>

  <rect x="20" y="18" width="24" height="16" rx="3" fill="#1F2937" stroke="#000" stroke-width="1.5"/>
  <rect x="21" y="19" width="22" height="14" rx="2" fill="#0F172A"/>

  <g class="screen-content">
    <rect class="pixel-mon" x="23" y="21" width="3" height="3" rx="1" fill="#FF6B6B"/>
    <rect class="pixel-mon" x="27" y="21" width="3" height="3" rx="1" fill="#4ECDC4"/>
    <rect class="pixel-mon" x="31" y="21" width="3" height="3" rx="1" fill="#FFD93D"/>
    <rect class="pixel-mon" x="35" y="21" width="3" height="3" rx="1" fill="#95E1D3"/>
    <rect class="pixel-mon" x="39" y="21" width="3" height="3" rx="1" fill="#F38BA8"/>

    <rect class="pixel-mon" x="23" y="25" width="3" height="3" rx="1" fill="#A8DADC"/>
    <rect class="pixel-mon" x="27" y="25" width="3" height="3" rx="1" fill="#FFB3BA"/>
    <rect class="pixel-mon" x="31" y="25" width="3" height="3" rx="1" fill="#BAFFC9"/>
    <rect class="pixel-mon" x="35" y="25" width="3" height="3" rx="1" fill="#BAE1FF"/>
    <rect class="pixel-mon" x="39" y="25" width="3" height="3" rx="1" fill="#FFFFBA"/>

    <rect class="pixel-mon" x="23" y="29" width="3" height="3" rx="1" fill="#D4A574"/>
    <rect class="pixel-mon" x="27" y="29" width="3" height="3" rx="1" fill="#9B59B6"/>
    <rect class="pixel-mon" x="31" y="29" width="3" height="3" rx="1" fill="#E67E22"/>
    <rect class="pixel-mon" x="35" y="29" width="3" height="3" rx="1" fill="#2ECC71"/>
    <rect class="pixel-mon" x="39" y="29" width="3" height="3" rx="1" fill="#3498DB"/>
  </g>

  <g class="controls">
    <rect x="22" y="38" width="8" height="4" rx="2" fill="#DC2626" stroke="#000" stroke-width="1"/>
    <rect x="34" y="38" width="8" height="4" rx="2" fill="#2563EB" stroke="#000" stroke-width="1"/>

    <g class="dpad" transform="translate(26, 44)">
      <rect x="2" y="0" width="8" height="2" rx="1" fill="#374151" stroke="#000" stroke-width="1"/>
      <rect x="5" y="-1" width="2" height="4" rx="1" fill="#374151" stroke="#000" stroke-width="1"/>
    </g>
  </g>

  <rect x="14" y="20" width="2" height="8" rx="1" fill="#6B7280"/>
  <rect x="48" y="20" width="2" height="8" rx="1" fill="#6B7280"/>
  <rect x="14" y="32" width="2" height="4" rx="1" fill="#6B7280"/>
  <rect x="48" y="32" width="2" height="4" rx="1" fill="#6B7280"/>

  <rect x="21" y="19" width="10" height="6" rx="1" fill="#FFFFFF" opacity="0.2"/>

  <circle cx="32" cy="48" r="2" fill="#4B5563" stroke="#000" stroke-width="1"/>
  <circle cx="32" cy="48" r="1" fill="#9CA3AF"/>

  <style>
    .digivice-storage {
      transition: all 0.5s ease;
    }

    .digivice-storage .pixel-mon {
      transition: all 0.3s ease;
      transform-origin: center;
    }

    .digivice-storage:hover .pixel-mon {
      animation: pixelGlow 1s ease-in-out infinite alternate;
    }

    .digivice-storage:hover {
      transform: scale(1.1);
      filter: drop-shadow(0 4px 12px rgba(0, 0, 0, 0.2));
    }

    @keyframes pixelGlow {
      0% {
        opacity: 0.8;
        transform: scale(1);
      }
      100% {
        opacity: 1;
        transform: scale(1.1);
        filter: brightness(1.3);
      }
    }
  </style>
</svg>
